<?xml version="1.0" encoding="utf-8"?>
<!-- Generator: Adobe Illustrator 19.2.1, SVG Export Plug-In . SVG Version: 6.00 Build 0)  -->
<svg version="1.1" id="Layer_1" xmlns="http://www.w3.org/2000/svg" xmlns:xlink="http://www.w3.org/1999/xlink" x="0px" y="0px"
	 viewBox="0 0 512 256" style="enable-background:new 0 0 512 256;" xml:space="preserve">
<style type="text/css">
	.st0{fill:#229ABF;}
	.st1{fill:#114B5F;}
</style>
<g>
	<path class="st0" d="M77.2,65.7H52v-4.8h55.8v4.8H82.7V140h-5.5V65.7z"/>
	<path class="st0" d="M165.9,140l-21.4-36.4h-16.8V140h-5.5V60.9h22.6c15.7,0,26,5.8,26,20.9c0,12.6-7.9,19.8-20.3,21.5l21.7,36.7
		H165.9z M143.3,99.1c14,0,21.7-5.6,21.7-17.3c0-11.9-7.7-16.2-21.7-16.2h-15.6v33.5H143.3z"/>
	<path class="st0" d="M188.6,60.9h5.5V140h-5.5V60.9z"/>
	<path class="st0" d="M216.5,60.9h5.5v74.3h36.4v4.8h-41.9V60.9z"/>
	<path class="st0" d="M264.2,100.2c0-25,13.6-40.7,32.6-40.7c19,0,32.5,15.7,32.5,40.7c0,25.1-13.6,41.3-32.5,41.3
		C277.7,141.4,264.2,125.2,264.2,100.2z M323.6,100.2c0-21.8-10.8-35.6-26.8-35.6c-16.1,0-26.9,13.8-26.9,35.6
		c0,22,10.8,36.2,26.9,36.2C312.8,136.4,323.6,122.1,323.6,100.2z"/>
	<path class="st0" d="M376.6,59.5c10.7,0,17.3,5,21.5,9.5l-3.2,3.6c-4.1-4.4-9.6-8-18.2-8c-18.1,0-29.3,13.8-29.3,35.8
		c0,22,10.7,36.1,28.7,36.1c7.1,0,13.8-2.2,17.6-6v-24.6h-18.8v-4.7h24.1v31.3c-4.9,5.3-13.1,9-23.4,9c-20.3,0-34-16-34-41.2
		C341.6,75.2,355.7,59.5,376.6,59.5z"/>
	<path class="st0" d="M430.7,108l-23.8-47h5.9l12,24.7c2.8,5.8,5.4,11.3,8.4,17h0.5c3-5.8,6-11.3,8.6-17l12-24.7h5.6l-23.8,47v32
		h-5.5V108z"/>
</g>
<g>
	<path class="st1" d="M146.5,171h1.6v20.5c0,3.4-1.2,5-3.9,5c-0.8,0-1.7-0.2-2.2-0.4l0.4-1.3c0.4,0.1,1.1,0.4,1.8,0.4
		c1.9,0,2.3-1.6,2.3-3.8V171z M145.9,165.4c0-0.9,0.7-1.4,1.4-1.4c0.8,0,1.5,0.5,1.5,1.4c0,0.8-0.7,1.4-1.5,1.4
		C146.6,166.8,145.9,166.3,145.9,165.4z"/>
	<path class="st1" d="M165,177.4c0.1-2.6-0.7-5.5-4.1-5.5c-2.3,0-4.4,1.2-5.5,2l-0.7-1.2c1.2-0.9,3.6-2.2,6.4-2.2
		c4.1,0,5.5,3,5.5,6.7v11.1h-1.3l-0.2-2.2H165c-1.8,1.4-3.9,2.7-6.1,2.7c-2.7,0-5-1.5-5-4.8C153.8,180.1,157.3,178.3,165,177.4z
		 M159.1,187.3c2,0,3.7-1,5.9-2.8v-5.9c-7.1,0.8-9.5,2.5-9.5,5.2C155.5,186.4,157.1,187.3,159.1,187.3z"/>
	<path class="st1" d="M169.9,171h1.7l3.9,10.8c0.5,1.7,1.2,3.4,1.7,5h0.1c0.6-1.6,1.2-3.3,1.8-5L183,171h1.6l-6.4,17.3h-1.9
		L169.9,171z"/>
	<path class="st1" d="M197.8,177.4c0.1-2.6-0.7-5.5-4.1-5.5c-2.3,0-4.4,1.2-5.5,2l-0.7-1.2c1.2-0.9,3.6-2.2,6.4-2.2
		c4.1,0,5.5,3,5.5,6.7v11.1h-1.3l-0.2-2.2h-0.1c-1.8,1.4-3.9,2.7-6.1,2.7c-2.7,0-5-1.5-5-4.8C186.7,180.1,190.2,178.3,197.8,177.4z
		 M192,187.3c2,0,3.7-1,5.9-2.8v-5.9c-7.1,0.8-9.5,2.5-9.5,5.2C188.3,186.4,190,187.3,192,187.3z"/>
	<path class="st1" d="M204.4,185.2c1.5,1.2,3,2.2,5.5,2.2c2.7,0,4.1-1.6,4.1-3.4c0-2.2-2.2-3.1-4.2-3.8c-2.6-0.9-5.5-2-5.5-4.9
		c0-2.5,2-4.6,5.6-4.6c1.8,0,3.7,0.8,4.9,1.8l-0.9,1.1c-1.2-0.9-2.4-1.5-4.1-1.5c-2.7,0-3.9,1.5-3.9,3.1c0,1.9,2,2.7,4.1,3.5
		c2.7,1,5.7,1.9,5.7,5.3c0,2.6-2.1,4.9-5.8,4.9c-2.6,0-4.8-1.1-6.3-2.4L204.4,185.2z"/>
	<path class="st1" d="M226.6,170.6c2.4,0,3.9,1,5.1,2.1l-0.9,1.1c-1.1-1-2.4-1.8-4.1-1.8c-3.5,0-6.3,3.1-6.3,7.7
		c0,4.5,2.5,7.6,6.3,7.6c1.8,0,3.4-0.9,4.6-2l0.8,1.1c-1.5,1.3-3.3,2.3-5.5,2.3c-4.5,0-7.8-3.3-7.8-9
		C218.7,173.9,222.4,170.6,226.6,170.6z"/>
	<path class="st1" d="M236.3,171h1.4l0.1,3.2h0.1c1.2-2.1,2.8-3.6,4.9-3.6c0.6,0,1.2,0.1,1.7,0.4l-0.4,1.4c-0.6-0.2-0.9-0.3-1.6-0.3
		c-1.5,0-3.4,1.2-4.7,4.4v11.8h-1.6V171z"/>
	<path class="st1" d="M247.1,165.4c0-0.9,0.6-1.4,1.4-1.4s1.4,0.5,1.4,1.4c0,0.8-0.6,1.4-1.4,1.4S247.1,166.3,247.1,165.4z
		 M247.8,171h1.6v17.3h-1.6V171z"/>
	<path class="st1" d="M257.6,189.8v6.3H256V171h1.4l0.1,2.2h0.1c1.7-1.3,3.7-2.6,5.9-2.6c4.6,0,6.9,3.5,6.9,8.8
		c0,5.9-3.6,9.3-7.6,9.3c-1.6,0-3.4-0.8-5.2-2.1V189.8z M262.7,187.3c3.5,0,6-3.2,6-7.9c0-4.2-1.5-7.4-5.5-7.4c-1.7,0-3.6,1-5.7,2.8
		v10.3C259.6,186.7,261.4,187.3,262.7,187.3z"/>
	<path class="st1" d="M276,172.4h-2.7v-1.2l2.7-0.1l0.2-5h1.4v5h5v1.4h-5v11.3c0,2.2,0.5,3.7,2.9,3.7c0.6,0,1.5-0.3,2.2-0.5l0.4,1.3
		c-1,0.4-2.1,0.6-2.8,0.6c-3.3,0-4.3-2.1-4.3-5.2V172.4z"/>
	<path class="st1" d="M292.8,185.2c1.5,1.2,3,2.2,5.5,2.2c2.7,0,4.1-1.6,4.1-3.4c0-2.2-2.2-3.1-4.2-3.8c-2.6-0.9-5.5-2-5.5-4.9
		c0-2.5,2-4.6,5.6-4.6c1.8,0,3.7,0.8,4.9,1.8l-0.9,1.1c-1.2-0.9-2.4-1.5-4.1-1.5c-2.7,0-3.9,1.5-3.9,3.1c0,1.9,2,2.7,4.1,3.5
		c2.7,1,5.7,1.9,5.7,5.3c0,2.6-2.1,4.9-5.8,4.9c-2.6,0-4.8-1.1-6.3-2.4L292.8,185.2z"/>
	<path class="st1" d="M314.8,170.6c2.1,0,3.5,0.8,5.1,2h0.1l0.2-1.6h1.3v25.1h-1.6v-6.7l0.1-3.3c-1.5,1.4-3.5,2.6-5.7,2.6
		c-4.4,0-7.2-3.2-7.2-9C307.1,174.1,310.7,170.6,314.8,170.6z M314.5,187.3c1.9,0,3.6-1,5.4-2.8v-10.3c-1.8-1.6-3.3-2.2-5-2.2
		c-3.5,0-6.1,3.3-6.1,7.7C308.8,184.3,310.8,187.3,314.5,187.3z"/>
	<path class="st1" d="M327.9,162.4h1.6v23.8c0,0.8,0.3,1.1,0.8,1.1c0.1,0,0.3,0,0.6-0.1l0.3,1.3c-0.3,0.1-0.6,0.2-1.2,0.2
		c-1.4,0-2.1-0.9-2.1-2.7V162.4z"/>
	<path class="st1" d="M335.8,165.4c0-0.9,0.6-1.4,1.4-1.4s1.4,0.5,1.4,1.4c0,0.8-0.6,1.4-1.4,1.4S335.8,166.3,335.8,165.4z
		 M336.4,171h1.6v17.3h-1.6V171z"/>
	<path class="st1" d="M345.1,172.4h-2.7v-1.2l2.7-0.1l0.2-5h1.4v5h5v1.4h-5v11.3c0,2.2,0.5,3.7,2.9,3.7c0.6,0,1.5-0.3,2.2-0.5
		l0.4,1.3c-1,0.4-2.1,0.6-2.8,0.6c-3.3,0-4.3-2.1-4.3-5.2V172.4z"/>
	<path class="st1" d="M361.6,170.6c4.1,0,6.6,2.9,6.6,8c0,0.4,0,0.9-0.1,1.3h-12.5c0.1,4.4,2.6,7.5,6.5,7.5c1.9,0,3.3-0.6,4.6-1.5
		l0.6,1.2c-1.4,0.8-2.9,1.7-5.4,1.7c-4.4,0-8-3.4-8-9S357.8,170.6,361.6,170.6z M366.7,178.6c0-4.4-2-6.7-5.1-6.7
		c-3,0-5.6,2.6-5.9,6.7H366.7z"/>
</g>
</svg>
